<svg width="19" height="20" viewBox="0 0 19 20" fill="none" xmlns="http://www.w3.org/2000/svg">
<path d="M18.05 9.64076H1.8677L7.79 1.85576C7.82568 1.80881 7.85398 1.75307 7.87329 1.69173C7.8926 1.63039 7.90254 1.56465 7.90254 1.49826C7.90254 1.43186 7.8926 1.36612 7.87329 1.30478C7.85398 1.24344 7.82568 1.1877 7.79 1.14076C7.75432 1.09381 7.71196 1.05657 7.66534 1.03116C7.61873 1.00575 7.56876 0.992676 7.5183 0.992676C7.46784 0.992676 7.41788 1.00575 7.37126 1.03116C7.32464 1.05657 7.28228 1.09381 7.2466 1.14076L0.6821 9.78576C0.664125 9.80918 0.648193 9.83518 0.6346 9.86326C0.628209 9.87519 0.622493 9.88772 0.6175 9.90076L0.5985 9.95076L0.5871 10.0008C0.586008 10.0149 0.586008 10.0291 0.5871 10.0433C0.577374 10.1076 0.577374 10.1739 0.5871 10.2383C0.586008 10.2524 0.586008 10.2666 0.5871 10.2808L0.5985 10.3308L0.6175 10.3808C0.622493 10.3938 0.628209 10.4063 0.6346 10.4183C0.648193 10.4463 0.664125 10.4723 0.6821 10.4958L7.2466 19.1408C7.28199 19.1884 7.32425 19.2262 7.37091 19.2521C7.41757 19.2779 7.46768 19.2912 7.5183 19.2912C7.56892 19.2912 7.61903 19.2779 7.66569 19.2521C7.71235 19.2262 7.75461 19.1884 7.79 19.1408C7.82533 19.0943 7.85336 19.0392 7.87248 18.9785C7.89161 18.9178 7.90145 18.8527 7.90145 18.787C7.90145 18.7213 7.89161 18.6562 7.87248 18.5955C7.85336 18.5348 7.82533 18.4797 7.79 18.4333L1.8677 10.6408H18.05C18.1508 10.6408 18.2474 10.5881 18.3187 10.4943C18.39 10.4005 18.43 10.2734 18.43 10.1408C18.43 10.0081 18.39 9.88097 18.3187 9.7872C18.2474 9.69343 18.1508 9.64076 18.05 9.64076Z" fill="black"/>
</svg>
