<svg width="19" height="20" viewBox="0 0 19 20" fill="none" xmlns="http://www.w3.org/2000/svg">
<path d="M0.949972 10.6405L17.1323 10.6405L11.21 18.4255C11.1743 18.4724 11.146 18.5282 11.1267 18.5895C11.1074 18.6509 11.0974 18.7166 11.0974 18.783C11.0974 18.8494 11.1074 18.9151 11.1267 18.9765C11.146 19.0378 11.1743 19.0935 11.21 19.1405C11.2457 19.1874 11.288 19.2247 11.3346 19.2501C11.3812 19.2755 11.4312 19.2886 11.4817 19.2886C11.5321 19.2886 11.5821 19.2755 11.6287 19.2501C11.6753 19.2247 11.7177 19.1874 11.7534 19.1405L18.3179 10.4955C18.3358 10.4721 18.3518 10.4461 18.3654 10.418C18.3718 10.4061 18.3775 10.3935 18.3825 10.3805L18.4015 10.3305L18.4129 10.2805C18.414 10.2664 18.414 10.2521 18.4129 10.238C18.4226 10.1736 18.4226 10.1074 18.4129 10.043C18.414 10.0289 18.414 10.0146 18.4129 10.0005L18.4015 9.95049L18.3825 9.90049C18.3775 9.88746 18.3718 9.87492 18.3654 9.86299C18.3518 9.83492 18.3358 9.80892 18.3179 9.78549L11.7534 1.14049C11.718 1.09287 11.6757 1.05503 11.6291 1.0292C11.5824 1.00336 11.5323 0.990055 11.4817 0.990055C11.4311 0.990055 11.3809 1.00336 11.3343 1.0292C11.2876 1.05503 11.2454 1.09287 11.21 1.14049C11.1746 1.18693 11.1466 1.24207 11.1275 1.30277C11.1084 1.36347 11.0985 1.42854 11.0985 1.49424C11.0985 1.55995 11.1084 1.62501 11.1275 1.68571C11.1466 1.74641 11.1746 1.80156 11.21 1.84799L17.1323 9.64049L0.949972 9.64049C0.84919 9.64049 0.752535 9.69317 0.681271 9.78694C0.610006 9.88071 0.569971 10.0079 0.569971 10.1405C0.569971 10.2731 0.610006 10.4003 0.681271 10.494C0.752535 10.5878 0.84919 10.6405 0.949972 10.6405Z" fill="black"/>
</svg>
